<?xml version="1.0" encoding="UTF-8"?>
<svg version="1.1" xmlns="http://www.w3.org/2000/svg" width="48" height="48">
<path d="M0 0 C0.88158201 3.53883277 1.03435465 6.07917692 0.1875 9.625 C0.01605469 10.38039063 -0.15539063 11.13578125 -0.33203125 11.9140625 C-1 14 -1 14 -3 17 C-6.375 17.1875 -6.375 17.1875 -10 17 C-14.96037507 17 -15.7087751 18.06154393 -19.1875 21.4375 C-23.33974925 25.71027898 -24.64450933 27.98325902 -24.61328125 33.8125 C-25.30684368 37.73568142 -28.13923927 39.96563396 -30.89453125 42.6640625 C-33 44 -33 44 -35.26171875 43.7109375 C-35.83535156 43.47632813 -36.40898438 43.24171875 -37 43 C-37.33 41.35 -37.66 39.7 -38 38 C-39.98 37.34 -41.96 36.68 -44 36 C-43.2323352 31.65309806 -41.17755973 29.45894535 -38.078125 26.44140625 C-35.69271257 24.78686267 -34.60296333 24.70381894 -31.75 24.75 C-27.47340946 24.66875217 -25.46428666 22.96527396 -22.44824219 20.01074219 C-20.24536995 17.71673626 -18.10312774 15.38616549 -16 13 C-16.33 12.01 -16.66 11.02 -17 10 C-17.03954234 7.66700175 -17.04401732 5.33291811 -17 3 C-11.42531458 -0.61601216 -6.39432346 -0.30720059 0 0 Z " fill="#334561" transform="translate(45,3)"/>
<path d="M0 0 C0.88158201 3.53883277 1.03435465 6.07917692 0.1875 9.625 C0.01605469 10.38039063 -0.15539062 11.13578125 -0.33203125 11.9140625 C-1 14 -1 14 -3 17 C-6.625 17.1875 -6.625 17.1875 -10 17 C-10.66 15.68 -11.32 14.36 -12 13 C-11.34 12.01 -10.68 11.02 -10 10 C-11.65 10.66 -13.3 11.32 -15 12 C-17 10 -17 10 -17.125 6.375 C-17.08375 5.26125 -17.0425 4.1475 -17 3 C-11.42531458 -0.61601216 -6.39432346 -0.30720059 0 0 Z " fill="#FB9B9B" transform="translate(45,3)"/>
<path d="M0 0 C-1.45770122 3.31907356 -3.29506264 5.65073389 -5.8125 8.25 C-6.47894531 8.95640625 -7.14539063 9.6628125 -7.83203125 10.390625 C-10.43559748 12.32336245 -11.83099716 12.33183276 -15 12 C-15.71484375 10.265625 -15.71484375 10.265625 -16 8 C-11.84279107 1.50954275 -7.54883045 -1.07840435 0 0 Z " fill="#AD7A85" transform="translate(17,28)"/>
<path d="M0 0 C0.61809496 4.32666473 0.91220656 6.69467585 -1.640625 10.34765625 C-5.49688057 14.3967246 -5.49688057 14.3967246 -8 16 C-10.265625 15.71484375 -10.265625 15.71484375 -12 15 C-12.3046875 12.83203125 -12.3046875 12.83203125 -12 10 C-9.8828125 7.32421875 -9.8828125 7.32421875 -7.125 4.6875 C-6.22007813 3.80449219 -5.31515625 2.92148437 -4.3828125 2.01171875 C-2 0 -2 0 0 0 Z " fill="#C9868D" transform="translate(20,31)"/>
<path d="M0 0 C0.33 0.66 0.66 1.32 1 2 C1.66 2.33 2.32 2.66 3 3 C2.45730469 3.47050781 1.91460937 3.94101562 1.35546875 4.42578125 C0.64003906 5.04839844 -0.07539063 5.67101563 -0.8125 6.3125 C-1.52019531 6.92738281 -2.22789063 7.54226562 -2.95703125 8.17578125 C-4.98244046 9.93276741 -4.98244046 9.93276741 -6.63671875 11.73046875 C-8 13 -8 13 -10 13 C-8.60366893 9.81440048 -6.95442507 7.76056155 -4.4375 5.375 C-1.85984611 2.95478041 -1.85984611 2.95478041 0 0 Z " fill="#4C5068" transform="translate(17,28)"/>
<path d="M0 0 C2.05078125 0.03255208 4.1015625 0.06510417 6.15234375 0.09765625 C4.78250872 3.25881401 4.16327995 4.09036545 1.15234375 6.09765625 C0.16234375 5.43765625 -0.82765625 4.77765625 -1.84765625 4.09765625 C-1.18765625 3.76765625 -0.52765625 3.43765625 0.15234375 3.09765625 C-0.83765625 2.43765625 -1.82765625 1.77765625 -2.84765625 1.09765625 C-1.84765625 0.09765625 -1.84765625 0.09765625 0 0 Z " fill="#F29798" transform="translate(10.84765625,27.90234375)"/>
<path d="M0 0 C0.66 0 1.32 0 2 0 C2.66 1.98 3.32 3.96 4 6 C2.0625 6.5625 2.0625 6.5625 0 7 C-1 6 -1 6 -1.125 3.5 C-1 1 -1 1 0 0 Z " fill="#FA9B9B" transform="translate(9,40)"/>
<path d="M0 0 C1.98 0.66 3.96 1.32 6 2 C5.67 2.99 5.34 3.98 5 5 C3.35 5 1.7 5 0 5 C-0.5625 3.0625 -0.5625 3.0625 -1 1 C-0.67 0.67 -0.34 0.34 0 0 Z " fill="#FA9B9B" transform="translate(2,35)"/>
<path d="M0 0 C0.66 0.33 1.32 0.66 2 1 C1.01 2.485 1.01 2.485 0 4 C0.3121764 6.64632287 0.3121764 6.64632287 1 9 C0.34 9 -0.32 9 -1 9 C-1.66 7.02 -2.32 5.04 -3 3 C-2.01 2.01 -1.02 1.02 0 0 Z " fill="#A07481" transform="translate(13,36)"/>
<path d="M0 0 C0 2.31 0 4.62 0 7 C-0.99 7.495 -0.99 7.495 -2 8 C-2.66 6.35 -3.32 4.7 -4 3 C-1.125 0 -1.125 0 0 0 Z " fill="#F8999A" transform="translate(20,32)"/>
</svg>
