<svg version="1.1" xmlns="http://www.w3.org/2000/svg" width="253" height="72">
<path d="M0 0 C2.41049138 1.08922007 3.95375076 2.27684275 6 4 C6.61875 3.34 7.2375 2.68 7.875 2 C12.24735414 -0.79830665 15.93672716 -0.93974344 21 0 C24.3742299 1.68366482 26.40734927 4.07237278 28.4375 7.25 C29.72038541 13.52188422 28.42155745 19.50445721 25.3671875 25.078125 C21.7164929 30.20995856 16.99643093 34.04979298 11 36 C3.75655767 37.15717051 -1.68176255 35.9907002 -7.765625 31.921875 C-12.56929682 27.79004539 -16.56337561 22.15866835 -17.23828125 15.73046875 C-17.40745111 9.93417498 -16.98003501 6.54861143 -13 2 C-8.7583342 -0.8277772 -4.98284464 -0.66437928 0 0 Z M-6 13 C-5.71998862 17.01349645 -5.24236211 18.72035142 -2.5625 21.8125 C1.43886359 25.22829819 3.74292739 25.3564117 9 25 C13.5484765 23.09598658 15.61029867 20.24835793 18 16 C18 15.01 18 14.02 18 13 C16.68 13 15.36 13 14 13 C13.71125 13.78375 13.4225 14.5675 13.125 15.375 C12 18 12 18 10 20 C2.92125984 20.68503937 2.92125984 20.68503937 -0.4375 18.1875 C-2 16 -2 16 -3 13 C-3.99 13 -4.98 13 -6 13 Z " fill="#1A1A1A" transform="translate(20,22)"/>
<path d="M0 0 C2.97 0 5.94 0 9 0 C9.05856225 4.47911082 9.09378482 8.9581217 9.125 13.4375 C9.14175781 14.69755859 9.15851563 15.95761719 9.17578125 17.25585938 C9.27079937 35.45182865 9.27079937 35.45182865 4.1875 40.9375 C3.70667969 41.48277344 3.22585937 42.02804688 2.73046875 42.58984375 C-1.98317977 46.43098848 -7.14549426 46.49326765 -12.98828125 46.37109375 C-17.6142415 45.80109865 -20.69282015 44.26743009 -24 41 C-27.73397125 36.21584934 -28.60557835 31.36734891 -28.3125 25.38671875 C-27.51929862 19.32864323 -24.95744391 14.87104802 -20.23046875 11.1015625 C-15.77048048 8.89890629 -10.81158127 9.15436787 -6 10 C-4.35 10.99 -2.7 11.98 -1 13 C-0.67 8.71 -0.34 4.42 0 0 Z M-15.875 20.0625 C-18.43175566 23.59683871 -19 25.64826225 -19 30 C-17.84546131 33.22055531 -16.90184838 35.25919598 -14.25 37.4375 C-10.86232946 38.28441764 -8.36855977 37.84213994 -5 37 C-1.78169627 34.79800271 -1.11060248 33.39816893 -0.0625 29.625 C0.00919226 25.46684915 -0.74696875 23.46001228 -3 20 C-7.64046162 16.90635892 -11.29456793 16.77653786 -15.875 20.0625 Z " fill="#1A1A1A" transform="translate(167,12)"/>
<path d="M0 0 C2.64 0 5.28 0 8 0 C8.33 4.62 8.66 9.24 9 14 C10.65 12.68 12.3 11.36 14 10 C19.43861955 9.00450571 24.45325976 9.30949097 29.5 11.5625 C34.71184951 16.64405328 36.25376411 20.2280997 36.5625 27.4375 C36.35360605 33.49542453 35.23725219 37.60060805 31 42 C25.80585319 46.24011985 21.43971719 46.56866918 14.80859375 46.3203125 C9.86516214 45.75652753 7.13135132 44.19420417 3.75 40.625 C0.3646151 35.54692264 -0.28465571 31.31718555 -0.1953125 25.29296875 C-0.1924826 24.56757401 -0.18965271 23.84217926 -0.18673706 23.09480286 C-0.17559799 20.79219632 -0.15050566 18.48998773 -0.125 16.1875 C-0.11496206 14.62044835 -0.10583763 13.05339057 -0.09765625 11.48632812 C-0.0756793 7.65740022 -0.04119339 3.82876744 0 0 Z M11.0625 19.9375 C8.29248682 24.05054988 8.07373666 27.17643997 9 32 C10.36942449 35.10847573 10.36942449 35.10847573 13 37 C16.91908586 38.14009771 19.03158504 38.40888632 22.8125 36.8125 C25.12759431 34.894279 25.90682767 33.75777565 27 31 C27.31330527 26.43698994 26.81765262 22.98599287 23.875 19.4375 C18.98745421 16.9937271 15.66202442 16.90377113 11.0625 19.9375 Z " fill="#1A1A1A" transform="translate(60,12)"/>
<path d="M0 0 C4.6668134 2.44500441 7.78834359 6.1622129 9.39233398 11.17871094 C9.86370942 13.66957597 9.90927107 15.98428165 9.89453125 18.51953125 C9.89130859 19.49921875 9.88808594 20.47890625 9.88476562 21.48828125 C9.87219727 23.01195312 9.87219727 23.01195312 9.859375 24.56640625 C9.85486328 25.59765625 9.85035156 26.62890625 9.84570312 27.69140625 C9.83393588 30.23313198 9.81749511 32.77473944 9.796875 35.31640625 C6.826875 35.31640625 3.856875 35.31640625 0.796875 35.31640625 C0.466875 34.32640625 0.136875 33.33640625 -0.203125 32.31640625 C-0.80125 32.81140625 -1.399375 33.30640625 -2.015625 33.81640625 C-6.72127587 36.03083019 -11.08717842 36.00003494 -16.203125 35.31640625 C-21.85214008 32.49189871 -24.44919133 29.54051057 -26.453125 23.62890625 C-27.7718599 17.62754488 -27.3290045 12.4475353 -24.453125 7.00390625 C-18.05445076 -0.63895465 -9.69723498 -3.00889383 0 0 Z M-16.203125 11.31640625 C-17.79766133 14.5054789 -17.58874202 17.84585307 -17.203125 21.31640625 C-15.47344787 25.06188229 -15.47344787 25.06188229 -12.203125 27.31640625 C-8.02168489 27.71088173 -5.89366452 27.76675811 -2.328125 25.44140625 C0.59726357 22.51601768 0.76190825 21.74300062 1.109375 17.50390625 C1.07919524 14.18413298 0.8029738 13.32596104 -1.078125 10.37890625 C-3.59481149 7.93623996 -4.53620719 7.39050823 -8.015625 7.00390625 C-11.9338895 7.38804983 -13.41605767 8.60896942 -16.203125 11.31640625 Z " fill="#1A1A1A" transform="translate(126.203125,22.68359375)"/>
<path d="M0 0 C5.46140625 3.99615091 8.42765833 8.17943415 9.5625 14.875 C9.64742299 20.9469941 8.54307809 25.12042062 4.5625 29.875 C-0.87009906 34.7775894 -5.2193692 35.29250384 -12.35546875 35.21484375 C-18.61525985 34.52460062 -22.05351734 31.57037876 -25.9375 26.8125 C-28.3868395 21.78201798 -28.25955097 16.30486301 -27.4375 10.875 C-25.60083069 5.86073025 -22.47438893 1.90430375 -17.59375 -0.50390625 C-11.7768508 -2.17942613 -5.70449848 -1.86692677 0 0 Z M-17.4375 10.875 C-19.03836627 14.07673254 -18.93667089 17.40077059 -18.4375 20.875 C-16.64386089 23.6850346 -15.41869065 25.38440468 -12.4375 26.875 C-7.35871075 27.39610971 -7.35871075 27.39610971 -3.0625 25 C-0.07412411 21.09212384 -0.05706165 17.66852324 -0.4375 12.875 C-1.60763226 9.4546134 -2.31060723 8.95959518 -5.4375 6.875 C-10.93014365 6.26470626 -13.5188844 6.9563844 -17.4375 10.875 Z " fill="#1A1A1A" transform="translate(206.4375,23.125)"/>
<path d="M0 0 C1.2375 0.86625 1.2375 0.86625 2.5 1.75 C3.19738281 2.22179687 3.89476562 2.69359375 4.61328125 3.1796875 C7.65493904 7.32339522 7.19729198 11.61803497 7.1875 16.625 C7.22810547 17.60597656 7.26871094 18.58695313 7.31054688 19.59765625 C7.3437524 26.62774071 7.3437524 26.62774071 4.99853516 29.74707031 C-0.42757685 34.53439589 -5.31044697 35.16719284 -12.41796875 35.08984375 C-18.67775985 34.39960062 -22.11601734 31.44537876 -26 26.6875 C-28.4493395 21.65701798 -28.32205097 16.17986301 -27.5 10.75 C-25.66333069 5.73573025 -22.53688893 1.77930375 -17.65625 -0.62890625 C-11.79718544 -2.31657158 -5.69686914 -2.03459612 0 0 Z M-17.5 10.75 C-19.03214888 13.81429776 -18.72938548 16.3665642 -18.5 19.75 C-16.84860695 23.2886994 -15.78394771 24.56070153 -12.5 26.75 C-7.4169001 27.31526648 -7.4169001 27.31526648 -3.125 24.875 C-0.16008913 20.99780886 0.0301078 17.52097022 -0.5 12.75 C-2.22967713 9.00452396 -2.22967713 9.00452396 -5.5 6.75 C-11.00023842 6.23110958 -13.56804501 6.81804501 -17.5 10.75 Z " fill="#1A1A1A" transform="translate(246.5,23.25)"/>
</svg>
