<svg version="1.1" xmlns="http://www.w3.org/2000/svg" width="330" height="56">
    <path
        d="M0 0 C2.05013493 -0.00971283 4.09927004 -0.04074007 6.14916992 -0.07226562 C7.43887695 -0.07742187 8.72858398 -0.08257812 10.05737305 -0.08789062 C11.83712524 -0.10190918 11.83712524 -0.10190918 13.65283203 -0.11621094 C16.6237793 0.24023437 16.6237793 0.24023437 18.3359375 1.45483398 C21.25911717 5.5073862 23.80058202 9.77237289 26.3737793 14.05273438 C27.29610352 15.5309668 27.29610352 15.5309668 28.23706055 17.0390625 C29.10137695 18.47862305 29.10137695 18.47862305 29.9831543 19.94726562 C30.51392578 20.81843018 31.04469727 21.68959473 31.59155273 22.5871582 C32.89826246 25.94572362 32.56545251 27.79318677 31.6237793 31.24023438 C30.65576172 33.38671875 30.65576172 33.38671875 29.47924805 35.33398438 C29.0493457 36.05457031 28.61944336 36.77515625 28.17651367 37.51757812 C27.72598633 38.25105469 27.27545898 38.98453125 26.8112793 39.74023438 C26.37235352 40.47371094 25.93342773 41.2071875 25.48120117 41.96289062 C24.21379574 44.06832789 22.93643493 46.16267031 21.6237793 48.24023438 C20.77046021 49.82396851 20.77046021 49.82396851 19.89990234 51.43969727 C17.6237793 54.24023438 17.6237793 54.24023438 14.41918945 55.06420898 C7.25785877 55.2136167 7.25785877 55.2136167 4.40698242 55.18725586 C2.25843604 55.17777698 0.12234825 55.24803306 -2.0246582 55.32421875 C-11.90530282 55.46513222 -11.90530282 55.46513222 -15.51611328 52.45825195 C-17.09176239 50.12284745 -18.23784955 47.81421803 -19.3762207 45.24023438 C-20.2218775 43.84011393 -21.08458627 42.450115 -21.96606445 41.07226562 C-22.75215164 39.73449286 -23.53474793 38.39466226 -24.3137207 37.05273438 C-24.72428711 36.38048828 -25.13485352 35.70824219 -25.55786133 35.015625 C-25.94006836 34.35369141 -26.32227539 33.69175781 -26.71606445 33.00976562 C-27.06016357 32.42815674 -27.4042627 31.84654785 -27.75878906 31.24731445 C-28.94834182 27.38044485 -27.78726312 24.10568209 -26.10107422 20.55541992 C-25.57441162 19.67152588 -25.04774902 18.78763184 -24.50512695 17.87695312 C-23.93084961 16.90822266 -23.35657227 15.93949219 -22.76489258 14.94140625 C-22.16225586 13.94689453 -21.55961914 12.95238281 -20.9387207 11.92773438 C-20.33995117 10.91388672 -19.74118164 9.90003906 -19.12426758 8.85546875 C-13.56950993 -0.43148888 -10.71991516 0.03081542 0 0 Z M-6.3762207 13.24023438 C-7.0362207 14.56023438 -7.6962207 15.88023438 -8.3762207 17.24023438 C-6.38518878 19.67859106 -6.38518878 19.67859106 -2.4621582 19.43554688 C-0.8917272 19.42223814 0.67864151 19.3983704 2.2487793 19.36523438 C3.45147461 19.35169922 3.45147461 19.35169922 4.6784668 19.33789062 C6.66036452 19.3142966 8.64210911 19.27842502 10.6237793 19.24023438 C11.00596697 17.5840878 11.33773031 15.91566413 11.6237793 14.24023438 C10.40948942 12.79634866 10.40948942 12.79634866 6.80737305 13.14257812 C5.22531248 13.14925349 3.64326771 13.16121562 2.0612793 13.17773438 C1.2549707 13.18224609 0.44866211 13.18675781 -0.38208008 13.19140625 C-2.38015827 13.2032292 -4.37819853 13.22116523 -6.3762207 13.24023438 Z M-12.3762207 24.24023438 C-13.0362207 25.56023438 -13.6962207 26.88023438 -14.3762207 28.24023438 C-12.50463565 30.54484252 -12.50463565 30.54484252 -9.48706055 30.46728516 C-7.68035889 30.45157471 -7.68035889 30.45157471 -5.8371582 30.43554688 C-4.53520508 30.42910156 -3.23325195 30.42265625 -1.8918457 30.41601562 C-0.51163475 30.39930367 0.86857358 30.38237376 2.2487793 30.36523438 C3.63679382 30.35520443 5.02481519 30.34607861 6.4128418 30.33789062 C9.81665956 30.314253 13.22013436 30.28130304 16.6237793 30.24023438 C17.00596697 28.5840878 17.33773031 26.91566413 17.6237793 25.24023438 C16.53189947 23.92248152 16.53189947 23.92248152 13.84814453 24.12670898 C12.63843994 24.1319458 11.42873535 24.13718262 10.18237305 24.14257812 C8.87719727 24.14580078 7.57202148 24.14902344 6.22729492 24.15234375 C4.8386224 24.16070036 3.44995052 24.16916532 2.0612793 24.17773438 C0.66870274 24.18274772 -0.72387552 24.18731091 -2.11645508 24.19140625 C-5.53641941 24.20324004 -8.95629914 24.21972557 -12.3762207 24.24023438 Z M-4.3762207 36.24023438 C-4.0462207 37.89023437 -3.7162207 39.54023437 -3.3762207 41.24023438 C0.2537793 41.24023438 3.8837793 41.24023438 7.6237793 41.24023438 C7.9537793 39.92023437 8.2837793 38.60023437 8.6237793 37.24023438 C4.65847965 34.59670128 0.10493619 33.99965593 -4.3762207 36.24023438 Z "
        fill="#1A1A1A" transform="translate(28.376220703125,0.759765625)" />
    <path
        d="M0 0 C3 2.0625 3 2.0625 5 4 C5.763125 3.34 6.52625 2.68 7.3125 2 C11.82602685 -1.0197644 16.78076456 -0.65439955 22 0 C26.18500306 1.69180975 28.50814689 4.26222034 31 8 C32.41796762 12.89245781 32.25784775 18.00898891 32.3125 23.0625 C32.34150391 23.96033203 32.37050781 24.85816406 32.40039062 25.78320312 C32.4643194 32.39737269 32.4643194 32.39737269 29.98046875 35.62109375 C29.32691406 36.07613281 28.67335937 36.53117187 28 37 C26.35 36.34 24.7 35.68 23 35 C22.970271 34.07719238 22.970271 34.07719238 22.93994141 33.13574219 C22.84450273 30.34007458 22.73490045 27.5451349 22.625 24.75 C22.5940625 23.78191406 22.563125 22.81382813 22.53125 21.81640625 C22.47324219 20.41455078 22.47324219 20.41455078 22.4140625 18.984375 C22.3826416 18.12553711 22.3512207 17.26669922 22.31884766 16.38183594 C21.97789815 13.83489613 21.36225106 12.17016095 20 10 C17.17116253 8.58558126 15.12623255 8.68099668 12 9 C9.21628941 11.86488855 8.62697771 13.94331102 8.59375 17.87890625 C8.57183594 18.79994141 8.54992187 19.72097656 8.52734375 20.66992188 C8.50907766 22.60221319 8.49084864 24.53450486 8.47265625 26.46679688 C8.45074219 27.38654297 8.42882812 28.30628906 8.40625 29.25390625 C8.39916016 30.09252197 8.39207031 30.9311377 8.38476562 31.79516602 C7.91552888 34.48404738 7.19036402 35.40715632 5 37 C2.375 36.8125 2.375 36.8125 0 36 C-1.22433469 33.55133062 -1.17270741 31.83370671 -1.24609375 29.09765625 C-1.29540039 27.63875977 -1.29540039 27.63875977 -1.34570312 26.15039062 C-1.40678167 24.09581221 -1.46408835 22.04111811 -1.51757812 19.98632812 C-1.55173828 19.01244141 -1.58589844 18.03855469 -1.62109375 17.03515625 C-1.6461499 16.1419165 -1.67120605 15.24867676 -1.69702148 14.32836914 C-1.86046896 11.72970751 -1.86046896 11.72970751 -4 9 C-8.72850996 8.42109962 -8.72850996 8.42109962 -12.875 10.375 C-14.84313608 13.21786322 -15.13666422 15.04656922 -15.2109375 18.46484375 C-15.23929688 19.34720703 -15.26765625 20.22957031 -15.296875 21.13867188 C-15.34884374 23.00045209 -15.39314923 24.86246242 -15.4296875 26.72460938 C-15.47609375 28.05008789 -15.47609375 28.05008789 -15.5234375 29.40234375 C-15.54325684 30.21179443 -15.56307617 31.02124512 -15.58349609 31.85522461 C-16.08598559 34.44278044 -16.99771592 35.34849801 -19 37 C-23.875 35.125 -23.875 35.125 -25 34 C-25.24246292 29.61876853 -25.22851955 25.23192683 -25.24023438 20.84472656 C-25.24993009 18.64089071 -25.28093522 16.43799131 -25.3125 14.234375 C-25.31903089 12.83594305 -25.32428103 11.43750442 -25.328125 10.0390625 C-25.3374707 8.76240723 -25.34681641 7.48575195 -25.35644531 6.17041016 C-25 3 -25 3 -23.63574219 1.04052734 C-22 0 -22 0 -19.5 0.3125 C-18.675 0.539375 -17.85 0.76625 -17 1 C-13.98332919 1.18382944 -13.98332919 1.18382944 -11.3125 -0.0625 C-7.23441875 -1.21667394 -4.06449186 -1.19347502 0 0 Z "
        fill="#1A1A1A" transform="translate(188,17)" />
    <path
        d="M0 0 C2.475 0.99 2.475 0.99 5 2 C5.33 7.61 5.66 13.22 6 19 C7.32 18.01 8.64 17.02 10 16 C15.22203816 14.44909393 20.15308748 14.68913379 25.140625 16.84375 C29.4194078 19.50450569 32.41773779 23.25321338 34 28 C34.94916973 40.64951198 34.94916973 40.64951198 31 46 C26.60671909 50.39328091 23.15509998 53.11562727 16.75 53.25 C12.15669556 53.21992927 9.06501366 52.07575166 5 50 C4.34 50.66 3.68 51.32 3 52 C-0.0625 51.75 -0.0625 51.75 -3 51 C-4.16029136 48.67941728 -4.14450313 47.29021226 -4.17700195 44.70556641 C-4.18983719 43.8176944 -4.20267242 42.92982239 -4.21589661 42.01504517 C-4.22328354 41.05359589 -4.23067047 40.09214661 -4.23828125 39.1015625 C-4.246353 38.11505707 -4.25442474 37.12855164 -4.26274109 36.1121521 C-4.27658538 34.02237712 -4.28730598 31.93257949 -4.29516602 29.84277344 C-4.31239362 26.64474784 -4.3562786 23.44775195 -4.40039062 20.25 C-4.41051609 18.22136178 -4.41903265 16.19271476 -4.42578125 14.1640625 C-4.44328934 13.20666168 -4.46079742 12.24926086 -4.47883606 11.2628479 C-4.4570178 4.59427179 -4.4570178 4.59427179 -1.97338867 1.36474609 C-1.32217041 0.91437988 -0.67095215 0.46401367 0 0 Z M8 27 C5.95974075 29.3035185 5.07404057 30.87368593 4.87109375 33.9609375 C5.09481308 37.60824044 5.67142096 39.57602704 7.9375 42.5 C12.33519341 44.65397228 16.20229845 45.03032607 21 44 C23.76844072 42.25895839 24.35177344 41.0217487 26 38 C26.54810099 34.09478046 26.34280578 31.81190844 24.8125 28.1875 C22.67657907 25.60966439 21.21249225 24.86188816 18 24 C13.56661697 24 11.72966548 24.69871705 8 27 Z "
        fill="#1A1A1A" transform="translate(81,1)" />
    <path
        d="M0 0 C1.9375 0.8125 1.9375 0.8125 3.9375 2.8125 C4.24349063 5.38166657 4.44837087 7.86008384 4.5625 10.4375 C4.60117188 11.14390625 4.63984375 11.8503125 4.6796875 12.578125 C4.77397724 14.32248524 4.85682891 16.06745691 4.9375 17.8125 C5.906875 17.296875 6.87625 16.78125 7.875 16.25 C13.03259683 14.06192862 17.73485656 14.64847439 22.92578125 16.53515625 C27.55257545 18.82378464 30.24956235 22.02240666 31.9375 26.8125 C33.505542 33.44153275 33.18765792 38.79567873 29.9375 44.8125 C27.22015442 49.02907073 24.6842417 51.14235014 19.9375 52.8125 C13.04276411 53.74699313 8.62198808 52.76692649 2.9375 48.8125 C2.9375 49.4725 2.9375 50.1325 2.9375 50.8125 C0.0625 51.4375 0.0625 51.4375 -3.0625 51.8125 C-5.51557634 49.35942366 -5.31825666 48.68859362 -5.3371582 45.31860352 C-5.34669022 44.38746231 -5.35622223 43.45632111 -5.36604309 42.4969635 C-5.36513168 41.48862961 -5.36422028 40.48029572 -5.36328125 39.44140625 C-5.36756638 38.40813705 -5.3718515 37.37486786 -5.37626648 36.31028748 C-5.38201683 34.12214898 -5.38250488 31.93399137 -5.37817383 29.74584961 C-5.37501609 26.39208441 -5.3984571 23.03920276 -5.42382812 19.68554688 C-5.4261012 17.56250112 -5.42680457 15.43945298 -5.42578125 13.31640625 C-5.434991 12.31009659 -5.44420074 11.30378693 -5.45368958 10.26698303 C-5.44746078 9.33268967 -5.44123199 8.3983963 -5.43481445 7.43579102 C-5.43544388 6.61353531 -5.4360733 5.7912796 -5.4367218 4.94410706 C-4.86574237 1.6917477 -3.43615364 -0.3123776 0 0 Z M5.9375 26.8125 C3.2571743 30.83298854 3.13354624 34.08823564 3.9375 38.8125 C6.30911121 42.160657 7.95283721 43.47000859 11.8125 44.8125 C15.9414302 44.8125 18.37697884 43.89506898 21.9375 41.8125 C24.23797261 38.57746039 24.95595612 36.71684971 24.875 32.75 C23.73729627 29.18519496 22.73679375 27.3246867 19.9375 24.8125 C14.61611262 22.9630626 10.64935061 23.67126626 5.9375 26.8125 Z "
        fill="#1A1A1A" transform="translate(233.0625,1.1875)" />
    <path
        d="M0 0 C4.34544247 3.07360565 7.12780619 6.67151384 8.5625 11.8125 C8.76384181 14.53319569 8.69946722 17.0731556 8.5625 19.8125 C6.78759454 21.58740546 4.18465098 21.04749973 1.77734375 21.12890625 C0.60751953 21.17080078 -0.56230469 21.21269531 -1.76757812 21.25585938 C-2.99927734 21.29517578 -4.23097656 21.33449219 -5.5 21.375 C-7.35334961 21.43977539 -7.35334961 21.43977539 -9.24414062 21.50585938 C-12.30847335 21.61234198 -15.37289073 21.71435424 -18.4375 21.8125 C-16.39947865 25.87274321 -16.39947865 25.87274321 -12.4375 27.8125 C-6.18029749 28.31711311 -4.30325246 27.88921152 0.5625 23.8125 C3.375 24.0625 3.375 24.0625 5.5625 24.8125 C6.3125 27 6.3125 27 6.5625 29.8125 C4.13329753 33.83002717 1.95850469 35.38933301 -2.4375 36.8125 C-9.79707421 37.68549777 -16.36952871 37.34520144 -22.4375 32.8125 C-27.67970028 27.30146894 -27.78839006 22.45547481 -27.71484375 15.1171875 C-27.33776087 10.62405906 -26.27277799 7.33275341 -23.4375 3.8125 C-16.45185195 -1.74750559 -8.4615549 -2.9230826 0 0 Z M-17.4375 9.8125 C-17.7675 11.1325 -18.0975 12.4525 -18.4375 13.8125 C-12.1675 13.8125 -5.8975 13.8125 0.5625 13.8125 C-1.93806593 8.83628257 -1.93806593 8.83628257 -5.4375 6.8125 C-10.36730536 6.35603654 -13.55456094 6.61478548 -17.4375 9.8125 Z "
        fill="#1A1A1A" transform="translate(320.4375,17.1875)" />
    <path
        d="M0 0 C2.375 0.8125 2.375 0.8125 3.375 2.8125 C3.49200983 4.44393588 3.55374229 6.07953406 3.5859375 7.71484375 C3.61429688 8.68744141 3.64265625 9.66003906 3.671875 10.66210938 C3.72385493 12.7166163 3.76815702 14.77133218 3.8046875 16.82617188 C3.835625 17.80005859 3.8665625 18.77394531 3.8984375 19.77734375 C3.91825684 20.6705835 3.93807617 21.56382324 3.95849609 22.48413086 C4.45084805 25.23651105 5.17444142 26.1389546 7.375 27.8125 C9.31957312 28.2839296 9.31957312 28.2839296 11.375 28.1875 C12.055625 28.19523437 12.73625 28.20296875 13.4375 28.2109375 C15.99479634 27.68504188 16.76883203 26.85706917 18.375 24.8125 C18.83016064 22.44884615 18.83016064 22.44884615 18.78125 19.8125 C18.80316406 18.843125 18.82507813 17.87375 18.84765625 16.875 C18.85667969 15.864375 18.86570313 14.85375 18.875 13.8125 C18.89285861 11.8123356 18.92354327 9.81223321 18.96875 7.8125 C18.97583984 6.925625 18.98292969 6.03875 18.99023438 5.125 C19.44986111 2.36257335 20.11684782 1.43277129 22.375 -0.1875 C25 0 25 0 27.375 0.8125 C29.57495978 5.21241956 28.60209926 11.15202421 28.61523438 16.04321289 C28.62494768 18.23817733 28.65597409 20.43220822 28.6875 22.62695312 C28.69402948 24.02082777 28.69928017 25.41470911 28.703125 26.80859375 C28.71714355 28.71402954 28.71714355 28.71402954 28.73144531 30.65795898 C28.375 33.8125 28.375 33.8125 27.02246094 35.76977539 C25.375 36.8125 25.375 36.8125 22.6875 36.5 C21.5428125 36.1596875 21.5428125 36.1596875 20.375 35.8125 C20.375 35.1525 20.375 34.4925 20.375 33.8125 C19.776875 34.3075 19.17875 34.8025 18.5625 35.3125 C12.84215871 38.00442532 6.76545369 37.66623346 0.875 35.5625 C-2.7166941 33.04831413 -4.24509886 30.95220343 -5.625 26.8125 C-5.88294207 22.81674285 -5.85633707 18.81569945 -5.875 14.8125 C-5.895625 13.70648438 -5.91625 12.60046875 -5.9375 11.4609375 C-5.94265625 10.40132812 -5.9478125 9.34171875 -5.953125 8.25 C-5.9624707 7.27933594 -5.97181641 6.30867188 -5.98144531 5.30859375 C-5.625 2.8125 -5.625 2.8125 -4.26855469 0.9609375 C-2.625 -0.1875 -2.625 -0.1875 0 0 Z "
        fill="#1A1A1A" transform="translate(126.625,17.1875)" />
    <path
        d="M0 0 C4.875 0.875 4.875 0.875 6 2 C6.1603556 5.02807044 6.25960448 8.03585454 6.31640625 11.06640625 C6.33718735 11.97502914 6.35796844 12.88365204 6.37937927 13.81980896 C6.44497672 16.73395946 6.5038068 19.64820304 6.5625 22.5625 C6.60567554 24.53321291 6.64928951 26.50391626 6.69335938 28.47460938 C6.80066843 33.31630988 6.90190675 38.15810437 7 43 C7.56589844 43.17015625 8.13179688 43.3403125 8.71484375 43.515625 C9.44832031 43.75796875 10.18179687 44.0003125 10.9375 44.25 C11.66839844 44.48203125 12.39929688 44.7140625 13.15234375 44.953125 C15 46 15 46 15.81640625 47.984375 C16 50 16 50 15 52 C11.38069302 53.20643566 8.80768995 53.32268559 5 53 C1.75896931 51.3489089 -0.36945037 50.13906172 -2.14916992 46.92407227 C-3.32381802 42.88712527 -3.30533998 39.08687606 -3.30078125 34.90234375 C-3.30720894 33.5954232 -3.30720894 33.5954232 -3.31376648 32.26210022 C-3.31949434 30.42563748 -3.32002145 28.58915207 -3.31567383 26.75268555 C-3.31250671 23.94345566 -3.33601649 21.13527225 -3.36132812 18.32617188 C-3.36360056 16.53906383 -3.36430487 14.75195295 -3.36328125 12.96484375 C-3.372491 12.12622299 -3.38170074 11.28760223 -3.39118958 10.42356873 C-3.34478397 4.57972574 -3.34478397 4.57972574 -1.47729492 1.43969727 C-0.9897876 0.96459717 -0.50228027 0.48949707 0 0 Z "
        fill="#1A1A1A" transform="translate(274,1)" />
</svg>