<svg version="1.1" xmlns="http://www.w3.org/2000/svg" width="191" height="80">
<path d="M0 0 C3.3 0 6.6 0 10 0 C10 7.59 10 15.18 10 23 C11.65 22.34 13.3 21.68 15 21 C17.65509615 20.86243025 20.1676475 20.80970927 22.8125 20.875 C25.184375 20.91625 27.55625 20.9575 30 21 C30 14.07 30 7.14 30 0 C32.97 0 35.94 0 39 0 C39 6.93 39 13.86 39 21 C47.41160592 19.99556039 47.41160592 19.99556039 50.0625 16.875 C50.371875 16.25625 50.68125 15.6375 51 15 C54.52069985 15.58678331 56.71299843 16.35649921 60 18 C60 29.55 60 41.1 60 53 C56.7 53 53.4 53 50 53 C50 45.08 50 37.16 50 29 C46.37 29.66 42.74 30.32 39 31 C39 38.26 39 45.52 39 53 C36.03 53 33.06 53 30 53 C30 45.74 30 38.48 30 31 C27.421875 31.103125 24.84375 31.20625 22.1875 31.3125 C21.37949951 31.33739502 20.57149902 31.36229004 19.73901367 31.38793945 C15.76288573 31.53309274 15.76288573 31.53309274 12.29492188 33.26757812 C10.70960999 35.38850066 10.5814882 36.60203287 10.48828125 39.23046875 C10.45283203 40.03291016 10.41738281 40.83535156 10.38085938 41.66210938 C10.34702148 42.91217773 10.34702148 42.91217773 10.3125 44.1875 C10.27833984 45.03248047 10.24417969 45.87746094 10.20898438 46.74804688 C10.12658529 48.83156649 10.06161355 50.91576216 10 53 C6.7 53 3.4 53 0 53 C0 35.51 0 18.02 0 0 Z " fill="#1A1A1A" transform="translate(1,8)"/>
<path d="M0 0 C0.78375 0.495 1.5675 0.99 2.375 1.5 C3.035 0.51 3.695 -0.48 4.375 -1.5 C7.9375 -1.75 7.9375 -1.75 11.375 -1.5 C13.49583609 0.62083609 12.56373112 5.35018564 12.578125 8.28515625 C12.58382507 9.17480576 12.58952515 10.06445526 12.59539795 10.98106384 C12.60486815 12.87172246 12.6113899 14.76239774 12.61523438 16.65307617 C12.62487809 19.52618032 12.65585594 22.39855023 12.6875 25.27148438 C12.69403613 27.10937076 12.6992842 28.94726226 12.703125 30.78515625 C12.7154718 31.63755386 12.7278186 32.48995148 12.74053955 33.36817932 C12.71725795 39.70636192 11.8613291 45.52205583 7.65625 50.55859375 C7.0684375 51.01363281 6.480625 51.46867187 5.875 51.9375 C5.2871875 52.41058594 4.699375 52.88367188 4.09375 53.37109375 C0.39164387 55.80270437 -3.13043958 55.69495769 -7.4375 55.75 C-9.24154297 55.78867188 -9.24154297 55.78867188 -11.08203125 55.828125 C-15.80213512 55.39098197 -19.00994301 53.96219152 -22.5234375 50.78125 C-23.01070313 50.1934375 -23.49796875 49.605625 -24 49 C-24.50273438 48.4121875 -25.00546875 47.824375 -25.5234375 47.21875 C-26.625 45.5 -26.625 45.5 -26.625 42.5 C-23.25402617 41.00178941 -21.42057881 40.5 -17.625 40.5 C-17.46 41.11875 -17.295 41.7375 -17.125 42.375 C-15.16870705 45.14641501 -13.1150823 45.63809607 -9.8671875 46.328125 C-6.14398639 46.61352718 -3.16106839 45.63659341 0.375 44.5 C0.705 41.53 1.035 38.56 1.375 35.5 C0.446875 35.995 0.446875 35.995 -0.5 36.5 C-6.32980911 38.36553892 -12.25587546 38.43190747 -17.9375 36 C-22.31192468 33.46743834 -24.75657801 30.15902651 -26.625 25.5 C-28.40137258 18.64827719 -27.65783999 12.85512115 -24.625 6.5 C-19.31564398 -2.22251346 -8.98195983 -3.71667303 0 0 Z M-15.625 10.5 C-18.19132517 13.92176689 -17.98935051 17.34640421 -17.625 21.5 C-16.3834519 24.29348323 -15.29827182 25.95140815 -12.9375 27.875 C-9.37114425 28.83887993 -6.16155601 28.523931 -2.625 27.5 C-0.24187297 25.60571954 1.0250559 24.19988821 2.375 21.5 C2.7501455 16.52932218 2.53378799 13.44848498 -0.625 9.5 C-5.60924831 5.89071674 -10.97486731 6.88323013 -15.625 10.5 Z " fill="#1A1A1A" transform="translate(135.625,24.5)"/>
<path d="M0 0 C4.31628998 2.53054839 6.90963799 5.54141398 8.5 10.3125 C8.5 13.9425 8.5 17.5725 8.5 21.3125 C-0.74 21.3125 -9.98 21.3125 -19.5 21.3125 C-16.26556357 26.17086304 -16.26556357 26.17086304 -13.5703125 27.125 C-8.61078311 27.60302693 -5.93023061 26.82967648 -1.5 24.3125 C-0.18 24.3125 1.14 24.3125 2.5 24.3125 C4.75 27.3125 4.75 27.3125 6.5 30.3125 C0.66216771 35.59434826 -4.21735619 37.7869191 -12.1953125 37.55859375 C-17.54188097 36.98768898 -21.80371946 35.4997246 -25.375 31.375 C-30.0175916 24.68420622 -30.12615313 19.40199448 -29.5 11.3125 C-27.81342946 5.85594825 -24.1014861 2.52308234 -19.5 -0.6875 C-13.31444008 -2.74935331 -5.96260471 -2.78479467 0 0 Z M-18.5 10.3125 C-18.83 11.3025 -19.16 12.2925 -19.5 13.3125 C-13.56 13.3125 -7.62 13.3125 -1.5 13.3125 C-3.14856825 9.18846527 -3.14856825 9.18846527 -6.5 7.3125 C-11.45765561 6.85345781 -14.55369174 7.17866697 -18.5 10.3125 Z " fill="#1A1A1A" transform="translate(182.5,24.6875)"/>
<path d="M0 0 C1.91015625 0.23046875 1.91015625 0.23046875 3.91015625 2.23046875 C4.46960938 1.90820312 5.0290625 1.5859375 5.60546875 1.25390625 C9.61208233 -0.52530182 13.61488035 -0.29964442 17.91015625 0.23046875 C22.65234923 2.33811008 24.84990329 5.03782813 27.09423828 9.68945312 C28.76501978 14.89277263 28.31458913 20.32531812 28.16015625 25.73046875 C28.14210937 26.93445313 28.1240625 28.1384375 28.10546875 29.37890625 C28.05862179 32.3302648 27.9930363 35.27993911 27.91015625 38.23046875 C24.61015625 38.23046875 21.31015625 38.23046875 17.91015625 38.23046875 C17.89557373 37.48885498 17.88099121 36.74724121 17.8659668 35.9831543 C17.79156168 32.62756244 17.69487619 29.27297381 17.59765625 25.91796875 C17.57509766 24.75072266 17.55253906 23.58347656 17.52929688 22.38085938 C17.49384766 21.26259766 17.45839844 20.14433594 17.421875 18.9921875 C17.39569092 17.96053467 17.36950684 16.92888184 17.3425293 15.8659668 C17.11121344 13.21503025 17.11121344 13.21503025 15.56567383 11.38989258 C13.0062848 9.59745216 10.94508979 9.91432984 7.91015625 10.23046875 C4.66165648 11.95273371 4.66165648 11.95273371 3.91015625 15.23046875 C3.76179677 17.0021385 3.66245607 18.77814487 3.59375 20.5546875 C3.55185547 21.58271484 3.50996094 22.61074219 3.46679688 23.66992188 C3.42748047 24.74177734 3.38816406 25.81363281 3.34765625 26.91796875 C3.30447266 28.00142578 3.26128906 29.08488281 3.21679688 30.20117188 C3.11068883 32.8774526 3.0099157 35.55394386 2.91015625 38.23046875 C-0.38984375 38.23046875 -3.68984375 38.23046875 -7.08984375 38.23046875 C-7.11449303 32.97941433 -7.13267943 27.7283933 -7.14477539 22.47729492 C-7.14981593 20.68952854 -7.15664829 18.9017663 -7.1652832 17.11401367 C-7.17736105 14.54995707 -7.18307469 11.98595478 -7.1875 9.421875 C-7.19266129 8.61770645 -7.19782257 7.8135379 -7.20314026 6.98500061 C-7.2033359 5.0664516 -7.15186358 3.14801507 -7.08984375 1.23046875 C-5.19495423 -0.66442077 -2.51845229 0.05027763 0 0 Z " fill="#1A1A1A" transform="translate(75.08984375,22.76953125)"/>
<path d="M0 0 C1.7325 0.1546875 1.7325 0.1546875 3.5 0.3125 C5.65502531 3.54503796 5.96856135 4.56400923 5.5 8.3125 C4.4375 10.1875 4.4375 10.1875 2.5 11.3125 C-3.94444444 10.86805556 -3.94444444 10.86805556 -5.5 9.3125 C-5.6875 5.875 -5.6875 5.875 -5.5 2.3125 C-3.5 0.3125 -3.5 0.3125 0 0 Z " fill="#1A1A1A" transform="translate(56.5,7.6875)"/>
</svg>
