<svg version="1.1" xmlns="http://www.w3.org/2000/svg" width="225" height="73">
    <path
        d="M0 0 C3.401685 1.33637625 5.43478846 2.43478846 8 5 C7.9765625 7.1640625 7.9765625 7.1640625 7.625 9.625 C7.51414063 10.44226562 7.40328125 11.25953125 7.2890625 12.1015625 C7.14597656 13.04128906 7.14597656 13.04128906 7 14 C7.87011719 13.96519531 7.87011719 13.96519531 8.7578125 13.9296875 C12.59982805 13.84092806 15.5236133 13.83186352 19.1875 15.125 C21.99548617 16.30082744 21.99548617 16.30082744 24.73999023 15.07128906 C28.33389306 13.89027763 31.1974255 13.7415101 34.97265625 13.734375 C36.28427734 13.73179688 37.59589844 13.72921875 38.94726562 13.7265625 C39.62313721 13.73075195 40.29900879 13.73494141 40.99536133 13.73925781 C43.06035614 13.74998886 45.12448467 13.73932285 47.18945312 13.7265625 C49.15495117 13.73042969 49.15495117 13.73042969 51.16015625 13.734375 C52.35261963 13.73663086 53.54508301 13.73888672 54.77368164 13.74121094 C58 14 58 14 60.67749023 15.14160156 C61.44391846 15.42487305 62.21034668 15.70814453 63 16 C64.33753451 15.34180273 65.67046102 14.67420199 67 14 C68.96592712 13.75276184 68.96592712 13.75276184 71.04663086 13.75708008 C71.83102036 13.75400345 72.61540985 13.75092682 73.42356873 13.74775696 C74.26218948 13.75494247 75.10081024 13.76212799 75.96484375 13.76953125 C77.27032921 13.77021858 77.27032921 13.77021858 78.60218811 13.7709198 C80.44045375 13.77393691 82.27871695 13.78180703 84.11694336 13.79418945 C86.92375805 13.81241079 89.73024178 13.81469923 92.53710938 13.81445312 C94.32552367 13.81937018 96.11393574 13.82519931 97.90234375 13.83203125 C98.73894028 13.83314407 99.5755368 13.8342569 100.43748474 13.83540344 C104.42081398 13.86767228 108.11199075 14.01460516 112 15 C112.0825 13.783125 112.165 12.56625 112.25 11.3125 C112.76847643 7.18659598 113.96383221 4.94942014 117 2 C121.25109 -0.5310473 125.16447536 -0.67881715 130 0 C133.53043837 1.73312429 135.40462497 2.97162495 137.375 6.375 C138.07893909 9.33154419 138.14087384 11.97121241 138 15 C141.465 14.505 141.465 14.505 145 14 C145.061875 12.96875 145.12375 11.9375 145.1875 10.875 C146.19490082 6.07047303 147.61779254 4.46470032 151 1 C154.68754586 -0.84377293 158.96664217 -0.35879563 163 0 C166.401685 1.33637625 168.43478846 2.43478846 171 5 C171.05932617 6.86010742 171.05932617 6.86010742 170.79296875 9.10546875 C170.6547168 10.33426758 170.6547168 10.33426758 170.51367188 11.58789062 C170.40603516 12.44576172 170.29839844 13.30363281 170.1875 14.1875 C170.09146484 15.02603516 169.99542969 15.86457031 169.89648438 16.72851562 C169.46413849 20.44552955 168.97853022 24.14803641 168.44140625 27.8515625 C167.26146189 34.77497533 167.26146189 34.77497533 169.5 41.0625 C169.995 41.701875 170.49 42.34125 171 43 C171.40899956 46.74916263 171.30609932 49.25175721 169.875 52.75 C165.94657686 57.46410777 161.1626242 58.35188867 155.34375 58.984375 C153 59 153 59 150.328125 58.50048828 C146.62330229 57.94335165 143.15175071 57.9384003 139.40625 58.0078125 C137.94922565 58.02532342 136.49219396 58.04223222 135.03515625 58.05859375 C132.7639495 58.08954465 130.49311763 58.12514016 128.22216797 58.17138672 C126.01264891 58.21392343 123.80356819 58.23721186 121.59375 58.2578125 C119.62438477 58.29092529 119.62438477 58.29092529 117.61523438 58.32470703 C113.72901658 57.97566127 111.38633954 56.85835707 108 55 C105.78385661 55.25810177 105.78385661 55.25810177 103.875 56.3125 C100.75100087 57.79922248 99.71246255 58 96 58 C96.0309375 59.5778125 96.0309375 59.5778125 96.0625 61.1875 C96 65 96 65 95 70 C88.07 70 81.14 70 74 70 C70.625 63.25 70.625 63.25 71 59 C64.06862381 58.10562888 57.28286699 57.93605671 50.296875 58.0625 C47 58 47 58 43.80859375 57.4375 C40.58594027 56.93550113 38.37170458 57.69649715 35.28125 58.58203125 C30.03630452 59.54300585 24.45191115 58.54840726 19.29296875 57.39453125 C16.97955748 56.76338593 16.97955748 56.76338593 15 58 C10.61086108 58.21187227 6.21790094 58.18579574 1.82421875 58.18530273 C-0.35957457 58.18748459 -2.5428589 58.20563136 -4.7265625 58.22460938 C-6.11718577 58.22754436 -7.50781145 58.22952845 -8.8984375 58.23046875 C-10.16349121 58.23457764 -11.42854492 58.23868652 -12.73193359 58.24291992 C-15.84180816 58.01175862 -17.337905 57.45794095 -20 56 C-22.45733658 56.80655515 -22.45733658 56.80655515 -25 58 C-34.00451728 59.67262681 -41.0941765 59.09280177 -48.875 54.1875 C-53.40161665 49.52774757 -54.43092533 45.00243138 -54.4375 38.625 C-54.26415092 30.58790645 -52.74795259 26.17071453 -47.5625 20.1875 C-41.66583235 15.15375932 -37.21598546 13.8567398 -29.5625 13.8125 C-27.89380859 13.79123047 -27.89380859 13.79123047 -26.19140625 13.76953125 C-23.03432812 13.99752098 -20.84292253 14.65558991 -18 16 C-17.98582031 15.41992188 -17.97164062 14.83984375 -17.95703125 14.2421875 C-17.58452025 8.1410614 -16.38435075 5.27741536 -12 1 C-8.31245414 -0.84377293 -4.03335783 -0.35879563 0 0 Z M-8.12402344 8.58544922 C-10.4497283 11.57884082 -10.77970812 13.63698073 -11.265625 17.3828125 C-11.43320312 18.63320313 -11.60078125 19.88359375 -11.7734375 21.171875 C-11.93070313 22.47640625 -12.08796875 23.7809375 -12.25 25.125 C-12.42273437 26.40632813 -12.59546875 27.68765625 -12.7734375 29.0078125 C-13.68143276 36.04117257 -14.2621143 42.90835196 -14 50 C-11.26752652 51.36623674 -9.01801098 51.128426 -6 51 C-4.18701995 49.18701995 -4.32444995 46.38818302 -3.9375 43.9375 C-3.67259766 42.28041016 -3.67259766 42.28041016 -3.40234375 40.58984375 C-3.26957031 39.73519531 -3.13679688 38.88054688 -3 38 C-2.59007812 38.77085938 -2.18015625 39.54171875 -1.7578125 40.3359375 C-1.21898437 41.33882812 -0.68015625 42.34171875 -0.125 43.375 C0.67550781 44.87160156 0.67550781 44.87160156 1.4921875 46.3984375 C2.8820138 49.05348395 2.8820138 49.05348395 5 51 C7.15131202 51.09865938 7.15131202 51.09865938 9.5 50.75 C10.2940625 50.66234375 11.088125 50.5746875 11.90625 50.484375 C14.20600682 50.14701767 14.20600682 50.14701767 16 48 C16 47.01 16 46.02 16 45 C14.88625 44.7215625 14.88625 44.7215625 13.75 44.4375 C9.73169646 42.33702315 8.84937056 40.12551894 7 36 C7.17622779 32.82789984 8.18014409 31.72978387 10 29 C13.125 28.3125 13.125 28.3125 16 28 C16.042721 26.33388095 16.04063832 24.66617115 16 23 C14.80589977 21.61447241 14.80589977 21.61447241 11.4375 21.375 C8.2491264 21.375 7.19352398 21.83507235 4.7265625 23.9375 C0.95218151 28.18127874 0.95218151 28.18127874 -2 33 C-1.93941406 32.28457031 -1.87882812 31.56914063 -1.81640625 30.83203125 C-1.17665054 23.22385955 -0.57712716 15.6131668 0 8 C-4.30402862 6.71494363 -4.30402862 6.71494363 -8.12402344 8.58544922 Z M154.84375 8.0625 C152.2204398 10.81919885 152.39839098 12.94062773 152.25 16.6875 C152.19328125 17.86699219 152.1365625 19.04648437 152.078125 20.26171875 C152.05234375 21.16535156 152.0265625 22.06898437 152 23 C151.34 22.67 150.68 22.34 150 22 C145.73843416 21.38452705 141.69874556 21.05006396 137.85546875 23.19921875 C133.19089954 27.09781659 130.90753703 30.71618648 130.1875 36.8125 C129.77429144 41.80789635 130.40782619 44.70950542 133 49 C135.98080332 50.95535602 138.05570568 51.22192269 141.5625 50.8125 C142.32691406 50.73644531 143.09132812 50.66039062 143.87890625 50.58203125 C146.35552133 49.90244442 147.36423561 48.93887729 149 47 C149.4640625 48.0209375 149.4640625 48.0209375 149.9375 49.0625 C151.78793792 51.22627954 151.78793792 51.22627954 154.1328125 51.078125 C158.71694393 50.58403104 158.71694393 50.58403104 163 49 C163 47.68 163 46.36 163 45 C161.68 44.67 160.36 44.34 159 44 C159.08564209 43.30028076 159.17128418 42.60056152 159.25952148 41.87963867 C159.65391406 38.64913471 160.04571958 35.41832176 160.4375 32.1875 C160.57220703 31.08728516 160.70691406 29.98707031 160.84570312 28.85351562 C161.685384 21.91078835 162.41234619 14.96864584 163 8 C158.83611791 6.8970518 158.83611791 6.8970518 154.84375 8.0625 Z M121.0625 9.1875 C119.73150966 11.04120269 119.73150966 11.04120269 120.3125 13.6875 C120.539375 14.450625 120.76625 15.21375 121 16 C124.01268757 16.92054342 125.42729162 17.27861489 128.3125 15.875 C130.24503895 14.0899904 130.24503895 14.0899904 130.3125 11.375 C130.25156054 9.04862094 130.25156054 9.04862094 129 8 C124.82823251 7.62427011 124.82823251 7.62427011 121.0625 9.1875 Z M-41.88671875 25.6171875 C-45.59785751 29.80457409 -46.83549949 32.77924312 -47.25 38.375 C-46.96911063 42.4478959 -46.29645691 44.6318632 -44 48 C-39.28717722 51.36630198 -34.60510471 51.85356925 -29 51 C-23.68823086 49.25751488 -20.0585018 46.77126281 -17 42 C-15.26765199 36.80295596 -15.47799794 31.87920741 -16.9375 26.625 C-19.90159022 22.85252153 -23.39321921 21.95140038 -28 21 C-33.08658396 21 -37.96860637 22.25880546 -41.88671875 25.6171875 Z M22.6875 25.0625 C18.82590381 29.28331444 17.20841281 33.46961326 16.87109375 39.18359375 C17.10952786 43.00576474 17.97005256 44.96295974 20.375 47.9375 C25.15140841 51.69039232 30.14784814 51.55912279 36 51 C39.03465702 49.68772566 39.03465702 49.68772566 41 48 C40.505 45.525 40.505 45.525 40 43 C38.01432292 43.29296875 36.02864583 43.5859375 34.04296875 43.87890625 C32 44 32 44 29 43 C27.07055546 39.14111092 27.67003238 35.16757773 28.8125 31.125 C32.44526177 27.59603143 37.11980804 28.09114111 42 28 C42.33 27.01 42.66 26.02 43 25 C41.28307723 21.70344556 41.28307723 21.70344556 37.875 21.1875 C31.85486971 20.89620337 27.81305319 21.87111783 22.6875 25.0625 Z M45 24 C45 25.32 45 26.64 45 28 C46.32 28 47.64 28 49 28 C48.67515625 29.30324219 48.67515625 29.30324219 48.34375 30.6328125 C48.0653125 31.78523438 47.786875 32.93765625 47.5 34.125 C47.2215625 35.26195312 46.943125 36.39890625 46.65625 37.5703125 C45.70088039 42.56325605 45.12264195 45.68396292 48 50 C52.46479214 51.41087432 56.16592847 51.32767096 60.5 49.625 C62.84622456 48.22294351 62.84622456 48.22294351 64 47 C64.66 48.32 65.32 49.64 66 51 C73.01330374 51.40657134 73.01330374 51.40657134 79 48 C79 47.01 79 46.02 79 45 C77.68 44.67 76.36 44.34 75 44 C75.45659012 38.25862214 75.91506191 32.52888465 76.625 26.8125 C76.74875 25.554375 76.8725 24.29625 77 23 C75.82963695 21.60712194 75.82963695 21.60712194 72.5625 21.8125 C68.94967279 21.60435072 68.94967279 21.60435072 67 24 C66.4975184 25.89475324 66.4975184 25.89475324 66.25390625 28.0625 C66.13853516 28.85914063 66.02316406 29.65578125 65.90429688 30.4765625 C65.67650207 32.15833898 65.45254024 33.84063909 65.23242188 35.5234375 C65.11576172 36.32007813 64.99910156 37.11671875 64.87890625 37.9375 C64.73304077 39.03384766 64.73304077 39.03384766 64.58422852 40.15234375 C64 42 64 42 61 44 C59.68 44 58.36 44 57 44 C57.03552979 43.36908447 57.07105957 42.73816895 57.10766602 42.08813477 C57.26467409 39.24652446 57.4136919 36.404551 57.5625 33.5625 C57.61857422 32.56927734 57.67464844 31.57605469 57.73242188 30.55273438 C57.80493164 29.13637695 57.80493164 29.13637695 57.87890625 27.69140625 C57.9260376 26.81685791 57.97316895 25.94230957 58.02172852 25.04125977 C58.23806957 23.00488949 58.23806957 23.00488949 57 22 C55.35769636 21.8754514 53.70947724 21.82431476 52.0625 21.8125 C51.16660156 21.79832031 50.27070312 21.78414062 49.34765625 21.76953125 C46.80885466 21.76805231 46.80885466 21.76805231 45 24 Z M79 25 C79.33 25.99 79.66 26.98 80 28 C80.99 28 81.98 28 83 28 C82.87882813 28.8470752 82.75765625 29.69415039 82.6328125 30.56689453 C82.18222312 33.73098513 81.73538107 36.89557667 81.29101562 40.06054688 C81.09848986 41.42631688 80.90450229 42.79188169 80.70898438 44.15722656 C80.4270773 46.12769946 80.15098358 48.09900124 79.875 50.0703125 C79.62363281 51.84559326 79.62363281 51.84559326 79.3671875 53.65673828 C79.01855554 56.8310508 78.78724064 59.81265661 79 63 C79.66 63.66 80.32 64.32 81 65 C83.31 65 85.62 65 88 65 C88.66 60.05 89.32 55.1 90 50 C91.485 50.103125 92.97 50.20625 94.5 50.3125 C100.17756134 50.30444672 103.79285006 48.78340822 108 45 C111.57631645 40.41784455 111.57720409 35.42347177 111.40234375 29.79296875 C111.15090799 26.77978884 111.15090799 26.77978884 109.0625 23.75 C105.07075102 21.46900058 101.51080672 20.98633557 97 22 C95.1939946 23.31556672 95.1939946 23.31556672 94 25 C94 25.66 94 26.32 94 27 C93.34 27 92.68 27 92 27 C92.185625 26.360625 92.37125 25.72125 92.5625 25.0625 C92.706875 24.381875 92.85125 23.70125 93 23 C91.34233202 21.34233202 89.39653595 21.78950497 87.125 21.75 C86.24070313 21.72421875 85.35640625 21.6984375 84.4453125 21.671875 C81.59035628 22.05496817 80.76004103 22.78537883 79 25 Z M113 24 C113.33 25.32 113.66 26.64 114 28 C114.99 28 115.98 28 117 28 C116.77183594 29.08539063 116.54367188 30.17078125 116.30859375 31.2890625 C116.01767659 32.73426388 115.72734286 34.17958278 115.4375 35.625 C115.28603516 36.33785156 115.13457031 37.05070312 114.97851562 37.78515625 C114.12364528 42.11915007 113.77575026 45.65157195 115 50 C118.06429776 51.53214888 120.6165642 51.22938548 124 51 C126.92798943 49.84587664 126.92798943 49.84587664 129 48 C129 47.01 129 46.02 129 45 C127.68 44.67 126.36 44.34 125 44 C125.06582275 43.36908447 125.13164551 42.73816895 125.19946289 42.08813477 C125.49274317 39.24680186 125.77772905 36.4046978 126.0625 33.5625 C126.16626953 32.56927734 126.27003906 31.57605469 126.37695312 30.55273438 C126.47041016 29.60849609 126.56386719 28.66425781 126.66015625 27.69140625 C126.79369507 26.37958374 126.79369507 26.37958374 126.92993164 25.04125977 C126.9530542 24.36764404 126.97617676 23.69402832 127 23 C125.34346314 21.34346314 123.39349204 21.82893835 121.125 21.8125 C119.79855469 21.79123047 119.79855469 21.79123047 118.4453125 21.76953125 C115.74233274 21.82931576 115.74233274 21.82931576 113 24 Z "
        fill="#1A1A1A" transform="translate(54,3)" />
    <path
        d="M0 0 C2.375 0.625 2.375 0.625 4.25 2.625 C5.74042918 6.5994778 5.60682101 9.58361462 4.375 13.625 C2.6875 16.125 2.6875 16.125 0.375 17.625 C-2.75 18 -2.75 18 -5.625 17.625 C-8.09535712 15.15464288 -7.97542281 14.2289993 -8.0625 10.8125 C-7.9833419 6.90548259 -7.76345092 5.82278703 -5.4375 2.5 C-2.625 0.625 -2.625 0.625 0 0 Z "
        fill="#1A1A1A" transform="translate(24.625,30.375)" />
    <path
        d="M0 0 C2.48018753 2.48018753 2.32361558 3.38515951 2.375 6.8125 C2.28549392 10.24853887 2.01528192 11.96816267 0.5 15.125 C-3.1314309 17.84857317 -5.53542721 17.37204773 -10 17 C-9.74551193 14.53895062 -9.47227281 12.08256695 -9.1875 9.625 C-9.11724609 8.92632812 -9.04699219 8.22765625 -8.97460938 7.5078125 C-8.75211708 5.65667662 -8.38337478 3.82461795 -8 2 C-4.77626323 -0.14915785 -3.73296326 -0.38286803 0 0 Z "
        fill="#1A1A1A" transform="translate(154,31)" />
    <path
        d="M0 0 C0.11116338 5.44700547 0.00581962 10.63562868 -1 16 C-2 17 -2 17 -5.4375 17.25 C-6.613125 17.1675 -7.78875 17.085 -9 17 C-11.49610765 13.25583853 -11.20241361 11.53549464 -10.60546875 7.23046875 C-9.12229909 1.76666309 -5.5188984 -0.78841406 0 0 Z "
        fill="#1B1B1B" transform="translate(204,30)" />
</svg>