<svg version="1.1" xmlns="http://www.w3.org/2000/svg" width="237" height="57">
    <path
        d="M0 0 C10.0416585 3.68194145 16.20765496 10.59229994 21 20 C23.8950058 27.17289383 24.00448648 34.78114306 21.5625 42.0625 C18.81895457 47.94547157 16.11671336 52.35416585 10 55 C6.14094659 55.65654411 2.34768009 55.82269607 -1.5625 55.875 C-2.55612549 55.8951416 -3.54975098 55.9152832 -4.57348633 55.93603516 C-11.60240937 55.77089675 -16.06793518 54.08695109 -21 49 C-25.34334105 43.14855442 -26.87895804 37.22973936 -26 30 C-24.16570894 23.20788224 -21.47892642 18.42977029 -16 14 C-15.01 14 -14.02 14 -13 14 C-12.67 16.64 -12.34 19.28 -12 22 C-7.43444849 20.02851185 -4.79164696 18.13577327 -2 14 C-0.99740493 10.99221479 -0.69685358 8.46179353 -0.4375 5.3125 C-0.35371094 4.31863281 -0.26992188 3.32476562 -0.18359375 2.30078125 C-0.09271484 1.16189453 -0.09271484 1.16189453 0 0 Z "
        fill="#1A1A1A" transform="translate(27,2)" />
    <path
        d="M0 0 C3.63 0 7.26 0 11 0 C11 17.49 11 34.98 11 53 C6.66666667 53 2.33333333 53 -2 53 C-3.83304688 53.08701172 -3.83304688 53.08701172 -5.703125 53.17578125 C-7.21871836 53.2223944 -8.73434541 53.26792192 -10.25 53.3125 C-11.00152344 53.35439453 -11.75304687 53.39628906 -12.52734375 53.43945312 C-16.61535107 53.52863304 -19.18901257 53.28734907 -22.4296875 50.6640625 C-27.51436873 45.39392178 -28.20067449 41.21310239 -28.4375 34.0625 C-28.26315289 26.60519843 -26.89980326 21.89980326 -21.625 16.625 C-15.72463257 12.97239159 -11.64379717 12.71410377 -5 14 C-3.68 14.66 -2.36 15.32 -1 16 C-0.67 10.72 -0.34 5.44 0 0 Z M-14.875 25 C-17.51032619 28.7204605 -18.3091407 31.46593639 -18 36 C-16.93724237 40.1222114 -15.63031384 42.57979077 -12 45 C-8.36961149 45.33614708 -5.73309014 45.27810542 -2.3125 43.98046875 C0.38436627 42.09320741 0.38436627 42.09320741 0.6640625 38.3125 C0.67732355 36.8750022 0.66335535 35.4370472 0.625 34 C0.64433594 33.27554688 0.66367188 32.55109375 0.68359375 31.8046875 C0.72084414 29.41035021 0.72084414 29.41035021 0 26 C-2.92733519 23.51620044 -4.68890566 23.04444205 -8.5 22.5 C-12.09411568 22.74604541 -12.09411568 22.74604541 -14.875 25 Z "
        fill="#1A1A1A" transform="translate(163,4)" />
    <path
        d="M0 0 C5.63918435 4.74204138 8.85041595 9.00841461 9.75 16.3125 C9.75 18.2925 9.75 20.2725 9.75 22.3125 C0.51 22.6425 -8.73 22.9725 -18.25 23.3125 C-14.87592111 28.51645956 -14.87592111 28.51645956 -10.5625 29.375 C-5.54670142 29.75283793 -1.57253266 27.64386599 2.75 25.3125 C4.73 28.2825 4.73 28.2825 6.75 31.3125 C5.38016497 34.47365776 4.7609362 35.3052092 1.75 37.3125 C-5.73269698 38.49406827 -15.2674509 38.9858827 -22.30859375 36.02734375 C-27.26893119 31.91092006 -29.66444768 26.60376203 -30.5234375 20.30859375 C-30.82975986 14.28818118 -29.52047723 8.91536692 -25.515625 4.32421875 C-18.01207627 -2.69945186 -9.3226203 -4.84059131 0 0 Z M-17.25 9.3125 C-17.91 10.9625 -18.57 12.6125 -19.25 14.3125 C-13.31 14.3125 -7.37 14.3125 -1.25 14.3125 C-2.20459114 9.96712081 -2.20459114 9.96712081 -5.25 7.3125 C-10.28812703 6.00631892 -13.21409011 5.85314867 -17.25 9.3125 Z "
        fill="#1A1A1A" transform="translate(205.25,19.6875)" />
    <path
        d="M0 0 C5.78549033 6.46613625 4.35655075 15.69415269 4.25 23.8125 C4.24097656 25.11638672 4.23195312 26.42027344 4.22265625 27.76367188 C4.19918397 30.96763832 4.16634727 34.17122264 4.125 37.375 C0.495 37.375 -3.135 37.375 -6.875 37.375 C-6.90005615 36.56756348 -6.9251123 35.76012695 -6.95092773 34.92822266 C-7.06665487 31.28531083 -7.18948635 27.64267274 -7.3125 24 C-7.35181641 22.72898437 -7.39113281 21.45796875 -7.43164062 20.1484375 C-7.47353516 18.93671875 -7.51542969 17.725 -7.55859375 16.4765625 C-7.59525146 15.35588379 -7.63190918 14.23520508 -7.66967773 13.08056641 C-7.70096013 10.40787229 -7.70096013 10.40787229 -8.875 8.375 C-14.13377783 7.91423597 -14.13377783 7.91423597 -18.97070312 9.51953125 C-21.60404766 12.08535413 -21.4135239 13.72434974 -21.484375 17.35546875 C-21.51660156 18.51884766 -21.54882812 19.68222656 -21.58203125 20.88085938 C-21.60330078 22.70327148 -21.60330078 22.70327148 -21.625 24.5625 C-21.65464844 25.78904297 -21.68429688 27.01558594 -21.71484375 28.27929688 C-21.78562899 31.31126453 -21.83828413 34.34245933 -21.875 37.375 C-25.175 37.375 -28.475 37.375 -31.875 37.375 C-31.875 24.505 -31.875 11.635 -31.875 -1.625 C-28.575 -1.625 -25.275 -1.625 -21.875 -1.625 C-21.545 -0.635 -21.215 0.355 -20.875 1.375 C-19.7921875 0.6634375 -19.7921875 0.6634375 -18.6875 -0.0625 C-12.57085844 -3.4606342 -6.08873677 -3.44145991 0 0 Z "
        fill="#1A1A1A" transform="translate(128.875,19.625)" />
    <path
        d="M0 0 C3.3 0 6.6 0 10 0 C10 3.3 10 6.6 10 10 C12.31 10 14.62 10 17 10 C17 13.3 17 16.6 17 20 C14.69 20 12.38 20 10 20 C10.33 26.6 10.66 33.2 11 40 C13.97 39.505 13.97 39.505 17 39 C17.36116046 40.4774746 17.71375048 41.95704675 18.0625 43.4375 C18.25972656 44.26121094 18.45695312 45.08492187 18.66015625 45.93359375 C18.77230469 46.61550781 18.88445312 47.29742187 19 48 C17.0137131 49.9862869 13.33002678 49.27479052 10.625 49.3125 C9.93921875 49.34150391 9.2534375 49.37050781 8.546875 49.40039062 C6.5390625 49.42578125 6.5390625 49.42578125 3 49 C0.72220578 46.77902817 0.05228882 45.42205885 -0.34057617 42.25097656 C-0.32486572 41.22456055 -0.30915527 40.19814453 -0.29296875 39.140625 C-0.28330078 38.02558594 -0.27363281 36.91054688 -0.26367188 35.76171875 C-0.23853516 34.60285156 -0.21339844 33.44398437 -0.1875 32.25 C-0.17396484 31.07566406 -0.16042969 29.90132812 -0.14648438 28.69140625 C-0.1111478 25.79380702 -0.06180979 22.89713573 0 20 C-0.969375 20.020625 -1.93875 20.04125 -2.9375 20.0625 C-6 20 -6 20 -7 19 C-7.1328125 17.1875 -7.1328125 17.1875 -7.125 15 C-7.12757812 14.278125 -7.13015625 13.55625 -7.1328125 12.8125 C-7 11 -7 11 -6 10 C-4.00041636 9.95919217 -1.99954746 9.95745644 0 10 C0 6.7 0 3.4 0 0 Z "
        fill="#1A1A1A" transform="translate(64,8)" />
    <path
        d="M0 0 C0 3.63 0 7.26 0 11 C-1.36125 11.185625 -1.36125 11.185625 -2.75 11.375 C-6.23858572 11.8940792 -6.23858572 11.8940792 -10 14 C-10.33 22.58 -10.66 31.16 -11 40 C-14.3 40 -17.6 40 -21 40 C-21 27.13 -21 14.26 -21 1 C-17.7 1 -14.4 1 -11 1 C-10.67 1.99 -10.34 2.98 -10 4 C-9.13375 3.2884375 -9.13375 3.2884375 -8.25 2.5625 C-5.48023273 0.63905051 -3.34663231 0 0 0 Z "
        fill="#1A1A1A" transform="translate(237,17)" />
    <path
        d="M0 0 C3.3 0 6.6 0 10 0 C10 12.87 10 25.74 10 39 C6.7 39 3.4 39 0 39 C0 26.13 0 13.26 0 0 Z "
        fill="#1A1A1A" transform="translate(84,18)" />
    <path
        d="M0 0 C2 2 2 2 2.375 5.4375 C2 9 2 9 0.375 11 C-2.83596428 12.35198496 -4.69946166 12.00451167 -8 11 C-10.15502531 7.76746204 -10.46856135 6.74849077 -10 3 C-7.65916893 -0.99318242 -4.22752593 -0.38432054 0 0 Z "
        fill="#1A1A1A" transform="translate(93,3)" />
</svg>